<svg id="Layer_1" data-name="Layer 1" xmlns="http://www.w3.org/2000/svg" viewBox="0 0 512 512"><title>shopping-cart-glyph</title><path d="M505.46,111.4H159c-3.61,0-6.54,3.36-6.54,7.53s2.93,7.52,6.54,7.52H505.46c3.6,0,6.54-3.37,6.54-7.52S509.07,111.4,505.46,111.4Z" fill="#434040"/><path d="M483.62,171.75H176c-3.6,0-6.54,3.37-6.54,7.53s2.93,7.53,6.54,7.53H483.62c3.62,0,6.55-3.37,6.55-7.53S487.24,171.75,483.62,171.75Z" fill="#434040"/><path d="M460.55,232.12H189.36c-3.62,0-6.55,3.37-6.55,7.52s2.93,7.52,6.55,7.52H460.55c3.61,0,6.54-3.36,6.54-7.52S464.17,232.12,460.55,232.12Z" fill="#434040"/><polygon points="222.54 121.45 209.54 123.39 227.23 280.37 240.95 283.71 222.54 121.45" fill="#434040"/><polygon points="274.75 122.59 261.69 123.63 271.3 285.14 285.02 282.28 274.75 122.59" fill="#434040"/><polygon points="314.16 120.32 314.12 285.63 326.59 285.14 327.25 120.32 314.16 120.32" fill="#434040"/><polygon points="374.62 119.77 349.87 287.53 364.01 281.79 387.52 122.27 374.62 119.77" fill="#434040"/><polygon points="430.9 119.7 390.2 288.49 404.75 285.14 443.5 123.72 430.9 119.7" fill="#434040"/><polygon points="485.99 116.99 432.19 280.37 445.08 286.58 498.23 122.27 485.99 116.99" fill="#434040"/><path d="M472.65,269.2H208.6L155.39,97.72c-.77,9.18-9,11.07-17,12.17l54.4,174c1.35,4.38,5,7.31,9,7.31h270.8c5.29,0,9.58-4.93,9.58-11S477.95,269.2,472.65,269.2Z" fill="#434040"/><path d="M153,89a18.07,18.07,0,0,0-12-4.44H17.12C7.66,84.56,0,91.44,0,99.93S7.66,115.3,17.12,115.3H140.94a18.81,18.81,0,0,0,2.06-.19c7.94-.86,14.13-6.55,14.9-13.72a14.15,14.15,0,0,0,.16-1.47A14.59,14.59,0,0,0,153,89Z" fill="#434040"/><path d="M197.79,351.43a38,38,0,1,0,38,38A38,38,0,0,0,197.79,351.43Zm0,66.51a28.51,28.51,0,1,1,28.5-28.5A28.5,28.5,0,0,1,197.79,417.94Z" fill="#434040"/><path d="M394.5,351.43a38,38,0,1,0,38,38A38,38,0,0,0,394.5,351.43Zm0,66.51a28.51,28.51,0,1,1,28.5-28.5A28.5,28.5,0,0,1,394.5,417.94Z" fill="#434040"/><path d="M208,362.86l17.33-80.39-13.26-3.78-17.78,82.47a28.86,28.86,0,0,1,3.47-.23A28.4,28.4,0,0,1,208,362.86Z" fill="#434040"/><path d="M367.56,380.17H224.73a28,28,0,0,1,.81,15.71H366.75a28,28,0,0,1,.81-15.71Z" fill="#434040"/></svg>